<?xml version="1.0" standalone="no"?><!DOCTYPE svg PUBLIC "-//W3C//DTD SVG 1.1//EN" "http://www.w3.org/Graphics/SVG/1.1/DTD/svg11.dtd"><svg t="1719481709130" class="icon" viewBox="0 0 1024 1024" version="1.1" xmlns="http://www.w3.org/2000/svg" p-id="62786" xmlns:xlink="http://www.w3.org/1999/xlink" width="32" height="32"><path d="M512 512m-512 0a512 512 0 1 0 1024 0 512 512 0 1 0-1024 0Z" fill="#FBD971" p-id="62787"></path><path d="M292.571429 365.714286m-146.285715 0a146.285714 146.285714 0 1 0 292.571429 0 146.285714 146.285714 0 1 0-292.571429 0Z" fill="#FFFFFF" p-id="62788"></path><path d="M731.428571 365.714286m-146.285714 0a146.285714 146.285714 0 1 0 292.571429 0 146.285714 146.285714 0 1 0-292.571429 0Z" fill="#FFFFFF" p-id="62789"></path><path d="M292.571429 365.714286m-73.142858 0a73.142857 73.142857 0 1 0 146.285715 0 73.142857 73.142857 0 1 0-146.285715 0Z" fill="#AF8066" p-id="62790"></path><path d="M731.428571 365.714286m-73.142857 0a73.142857 73.142857 0 1 0 146.285715 0 73.142857 73.142857 0 1 0-146.285715 0Z" fill="#AF8066" p-id="62791"></path></svg>