<?xml version="1.0" standalone="no"?><!DOCTYPE svg PUBLIC "-//W3C//DTD SVG 1.1//EN" "http://www.w3.org/Graphics/SVG/1.1/DTD/svg11.dtd"><svg t="1719481379721" class="icon" viewBox="0 0 1024 1024" version="1.1" xmlns="http://www.w3.org/2000/svg" p-id="58191" xmlns:xlink="http://www.w3.org/1999/xlink" width="32" height="32"><path d="M512 512m-512 0a512 512 0 1 0 1024 0 512 512 0 1 0-1024 0Z" fill="#FBD971" p-id="58192"></path><path d="M195.047619 475.062857a24.356571 24.356571 0 0 1-17.237333-41.618286l206.872381-206.872381a24.356571 24.356571 0 1 1 34.474666 34.474667l-206.872381 206.872381a24.210286 24.210286 0 0 1-17.237333 7.143619z" fill="#F29C1F" p-id="58193"></path><path d="M401.92 475.062857a24.30781 24.30781 0 0 1-17.237333-7.143619l-206.872381-206.872381a24.356571 24.356571 0 1 1 34.474666-34.474667l206.872381 206.872381a24.356571 24.356571 0 0 1-17.237333 41.618286zM622.08 475.062857a24.356571 24.356571 0 0 1-17.237333-41.618286l206.872381-206.872381a24.356571 24.356571 0 1 1 34.474666 34.474667l-206.872381 206.872381a24.259048 24.259048 0 0 1-17.237333 7.143619z" fill="#F29C1F" p-id="58194"></path><path d="M828.952381 475.062857a24.30781 24.30781 0 0 1-17.237333-7.143619l-206.872381-206.872381a24.356571 24.356571 0 1 1 34.474666-34.474667l206.872381 206.872381A24.356571 24.356571 0 0 1 828.952381 475.062857z" fill="#F29C1F" p-id="58195"></path><path d="M512 633.904762v190.195809c0 53.638095 43.885714 97.52381 97.52381 97.52381h24.380952c53.638095 0 97.52381-43.885714 97.523809-97.52381V633.904762c-41.642667 0.512-175.250286 0-219.428571 0z" fill="#FB7B76" p-id="58196"></path><path d="M622.518857 795.087238a24.380952 24.380952 0 0 1-24.380952-24.380952v-4.022857c0.024381-62.464-1.731048-101.059048-5.241905-114.956191A24.380952 24.380952 0 0 1 609.52381 609.52381c31.47581 0 33.840762 40.740571 35.742476 73.459809 1.657905 28.598857 1.633524 61.781333 1.633524 83.748571v3.998477a24.356571 24.356571 0 0 1-24.380953 24.356571z" fill="#E64C3C" p-id="58197"></path><path d="M755.809524 658.285714H219.428571a24.380952 24.380952 0 1 1 0-48.761904h536.380953a24.380952 24.380952 0 1 1 0 48.761904z" fill="#F0C419" p-id="58198"></path></svg>